<svg width="18" height="13" viewBox="0 0 18 13" fill="none" xmlns="http://www.w3.org/2000/svg">
<path d="M17.3446 1.539C16.6996 1.8 16.0123 1.973 15.2958 2.057C16.0329 1.651 16.5955 1.013 16.86 0.244C16.1728 0.622 15.4139 0.889 14.6052 1.038C13.9527 0.397 13.0225 0 12.0079 0C10.0393 0 8.45441 1.474 8.45441 3.281C8.45441 3.541 8.47826 3.791 8.5368 4.029C5.58063 3.896 2.96484 2.589 1.20762 0.598C0.900835 1.089 0.720885 1.651 0.720885 2.256C0.720885 3.392 1.35505 4.399 2.30033 4.982C1.72904 4.972 1.16859 4.819 0.693784 4.578C0.693784 4.588 0.693784 4.601 0.693784 4.614C0.693784 6.208 1.92633 7.532 3.54264 7.837C3.2532 7.91 2.93774 7.945 2.61036 7.945C2.38271 7.945 2.1529 7.933 1.93718 7.889C2.39789 9.188 3.70524 10.143 5.25975 10.174C4.04997 11.047 2.51388 11.573 0.85097 11.573C0.559364 11.573 0.279682 11.561 0 11.528C1.57511 12.465 3.44182 13 5.45488 13C11.9981 13 15.5755 8 15.5755 3.666C15.5755 3.521 15.57 3.381 15.5624 3.242C16.2682 2.78 16.8611 2.203 17.3446 1.539Z" fill="#080809"/>
</svg>
